<svg version="1.2" xmlns="http://www.w3.org/2000/svg" viewBox="0 0 32 32" width="32" height="32">
	<title>68747470733a2f2f7374726170692e696f2f6173736574732f7374726170692d6c6f676f2d6c696768742e737667-svg</title>
	<style>
		.s0 { fill: #ffffff } 
		.s1 { fill: #4945ff } 
		.s2 { opacity: .4;fill: #ffffff } 
	</style>
	<path id="Layer" fill-rule="evenodd" class="s0" d="m125.8 2.8q0-1.1 0.8-2 0.9-0.8 2-0.8 1.1 0 1.9 0.8 0.8 0.9 0.8 2 0 1.1-0.8 1.9-0.8 0.8-1.9 0.8-1.1 0-2-0.8-0.8-0.8-0.8-1.9zm-57.1 8.9q-0.1 0.1-0.1 0.1h-3.8v7.2q0 0.9 0.4 1.3 0.5 0.4 1.3 0.5 0.8 0 1.9 0h0.1q0.1 0 0.2 0.1v3.8q-0.1 0.1-0.1 0.1h-0.1q-4.5 0.5-6.3-0.9-1.9-1.3-1.9-4.9v-7.2h-2.9q0 0-0.1-0.1v-4q0.1-0.1 0.1-0.1h2.9v-2.9q0-0.1 0.2-0.2l4.1-1.8c0.1-0.1 0.2 0 0.2 0.1v4.8h3.8q0 0 0.1 0.1zm8-1.3q0.6-1.6 2-2.4 1.3-0.8 2.9-0.9 0.1 0 0.2 0 0.1 0 0.1 0.1v4.7c0 0.1-0.1 0.2-0.2 0.2q-1.9-0.2-3.4 0.8-1.6 1.1-1.6 3.6v8.1q0 0.1-0.1 0.1h-4.2q-0.1 0-0.1-0.1v-17q0-0.1 0.1-0.1h4.2q0.1 0 0.1 0.1zm25.2-3q0.1 0 0.1 0.1v17.1q0 0.1-0.1 0.1h-4.2q-0.1 0-0.1-0.1v-2q-2 2.5-5.6 2.5-3.5 0-5.9-2.6-2.5-2.6-2.5-6.5 0-3.8 2.5-6.4 2.4-2.7 5.9-2.7 3.6 0 5.6 2.6v-2q0-0.1 0.1-0.1zm-12.6 12.2q1.4 1.3 3.5 1.3 2 0 3.4-1.4 1.3-1.3 1.3-3.5 0-2.1-1.3-3.5-1.4-1.3-3.4-1.3-2.1 0-3.5 1.3-1.3 1.4-1.3 3.5 0 2.2 1.3 3.6zm34.4-3.6q0 3.9-2.5 6.5-2.4 2.6-5.9 2.6-3.6 0-5.6-2.5v8.9q0 0.1-0.1 0.1h-4.2q-0.1 0-0.1-0.1v-24q0-0.1 0.1-0.1h4.2q0.1 0 0.1 0.1v2q2-2.6 5.6-2.6 3.5 0 5.9 2.7 2.5 2.6 2.5 6.4zm-12.6 3.6q1.3 1.3 3.4 1.3 2 0 3.4-1.4 1.4-1.3 1.3-3.5 0.1-2.1-1.3-3.5-1.4-1.3-3.4-1.3-2.1 0-3.4 1.3-1.4 1.4-1.4 3.5 0 2.2 1.4 3.6zm15.3 5.1q-0.1 0-0.1-0.1v-17.1q0-0.1 0.1-0.1h4.3q0.1 0 0.1 0.1v17.1q0 0.1-0.1 0.1zm-77-10.5q1.3 0.3 2.6 0.8 1.3 0.5 2.2 1.7 1 1.2 1 2.9 0 2.7-2 4.1-2 1.4-5 1.4-5.1 0-7.1-3.9 0 0 0-0.1-0.1-0.1 0-0.1l3.8-1.7c0.1 0 0.2 0 0.2 0.1q0.9 1.7 3.1 1.7 2.4 0 2.4-1.5 0-0.7-0.9-1.1-0.9-0.4-2.2-0.8-1.3-0.3-2.6-0.8-1.3-0.5-2.2-1.7-0.9-1.1-0.9-2.8 0-2.5 1.8-4 1.9-1.5 4.7-1.5 2.1 0 3.8 1c1 0.6 1.9 1.3 2.5 2.3 0 0.1 0.1 0.2 0.1 0.2q0.1 0.1 0 0.2l-3.7 1.6q-0.2 0.1-0.2 0-0.9-1.3-2.5-1.3-0.9 0-1.4 0.4-0.6 0.4-0.6 1 0 0.7 0.9 1.1 0.9 0.5 2.2 0.8z"/>
	<path id="Layer" class="s1" d="m0 6c0-3.2 2.5-5.7 5.7-5.7h20.3c3.2 0 5.7 2.5 5.7 5.7v20.3c0 3.2-2.5 5.7-5.7 5.7h-20.3c-3.2 0-5.7-2.5-5.7-5.7z"/>
	<path id="Layer" fill-rule="evenodd" class="s0" d="m22 9.9h-10.8v5.4h5.4c0.1 0 0.1 0 0.1 0.1v5.4h5.4v-10.8c0-0.1 0-0.1-0.1-0.1z"/>
	<path id="Layer" fill-rule="evenodd" class="s2" d="m11.2 9.9v5.4h-5.2c-0.1 0-0.2-0.1-0.1-0.2z"/>
	<path id="Layer" fill-rule="evenodd" class="s2" d="m16.9 26.1c-0.1 0.1-0.2 0-0.2-0.1v-5.2h5.4z"/>
	<path id="Layer" class="s2" d="m11.2 15.3h5.5q0 0 0 0v5.5h-5.4c-0.1 0-0.1 0-0.1-0.1z"/>
</svg>